<svg width="310" height="85" viewBox="0 0 310 85" fill="none" xmlns="http://www.w3.org/2000/svg">
<path d="M174.245 64V14.0571H183.295V64H174.245Z" fill="white"/>
<path d="M97.646 15.4387L116.78 64H124.24L143.582 15.4387H133.566L120.623 49.5336L107.8 15.4387H97.646Z" fill="white"/>
<path fill-rule="evenodd" clip-rule="evenodd" d="M144.933 62.411C147.65 63.931 150.69 64.691 154.052 64.691C157.413 64.691 160.43 63.931 163.101 62.411C165.818 60.846 167.959 58.75 169.525 56.125C171.091 53.454 171.874 50.484 171.874 47.2143C171.874 43.9447 171.091 41.0204 169.525 38.4415C167.959 35.8165 165.818 33.7442 163.101 32.2245C160.43 30.6588 157.39 29.8759 153.983 29.8759C150.667 29.8759 147.65 30.6588 144.933 32.2245C142.216 33.7442 140.075 35.8165 138.509 38.4415C136.943 41.0204 136.161 43.9447 136.161 47.2143C136.161 50.484 136.943 53.454 138.509 56.125C140.121 58.75 142.262 60.846 144.933 62.411ZM158.473 55.158C157.183 55.895 155.686 56.263 153.983 56.263C152.325 56.263 150.851 55.895 149.562 55.158C148.272 54.375 147.259 53.316 146.522 51.981C145.785 50.599 145.417 49.0334 145.417 47.2834C145.417 45.5334 145.785 43.9907 146.522 42.6552C147.259 41.3197 148.272 40.2835 149.562 39.5467C150.851 38.7638 152.325 38.3724 153.983 38.3724C155.686 38.3724 157.183 38.7638 158.473 39.5467C159.762 40.2835 160.775 41.3197 161.512 42.6552C162.249 43.9907 162.617 45.5334 162.617 47.2834C162.617 49.0334 162.249 50.599 161.512 51.981C160.821 53.316 159.808 54.375 158.473 55.158Z" fill="white"/>
<path d="M194.214 62.826C196.516 64.069 199.141 64.691 202.089 64.691C205.036 64.691 207.638 64.092 209.894 62.895C212.197 61.652 213.97 59.925 215.213 57.714C216.503 55.504 217.147 52.925 217.147 49.9774V30.6357H208.098V49.7702C208.098 51.843 207.569 53.454 206.509 54.606C205.45 55.757 203.977 56.333 202.089 56.333C200.845 56.333 199.763 56.079 198.842 55.573C197.921 55.066 197.23 54.329 196.77 53.362C196.309 52.349 196.079 51.152 196.079 49.7702V30.6357H186.961V49.9774C186.961 52.879 187.605 55.435 188.895 57.645C190.184 59.855 191.957 61.582 194.214 62.826Z" fill="white"/>
<path d="M220.9 63.9999V30.6356H229.949V33.5304C230.758 32.7401 231.679 32.0745 232.712 31.5336C234.646 30.4744 236.834 29.9449 239.274 29.9449C241.577 29.9449 243.672 30.4744 245.56 31.5336C247.143 32.3827 248.45 33.539 249.483 35.0025C250.599 33.5781 251.962 32.4449 253.573 31.6027C255.6 30.4975 257.856 29.9449 260.343 29.9449C262.83 29.9449 265.063 30.4744 267.043 31.5336C269.024 32.5468 270.589 34.0204 271.741 35.9546C272.892 37.8888 273.468 40.1913 273.468 42.8623V63.9999H264.419V44.313C264.419 42.3788 263.797 40.8821 262.553 39.8229C261.356 38.7177 259.859 38.1651 258.063 38.1651C256.912 38.1651 255.83 38.4184 254.817 38.9249C253.85 39.3854 253.09 40.0762 252.537 40.9972C251.985 41.9183 251.708 43.0235 251.708 44.313V63.9999H242.659V44.313C242.659 42.3788 242.037 40.8821 240.794 39.8229C239.597 38.7177 238.1 38.1651 236.304 38.1651C235.107 38.1651 234.024 38.4184 233.057 38.9249C232.09 39.3854 231.33 40.0762 230.778 40.9972C230.225 41.9183 229.949 43.0235 229.949 44.313V63.9999H220.9Z" fill="white"/>
<path fill-rule="evenodd" clip-rule="evenodd" d="M283.98 62.48C286.697 63.954 289.806 64.691 293.306 64.691C296.023 64.691 298.533 64.207 300.835 63.24C303.184 62.273 305.164 60.846 306.776 58.957L301.457 53.639C300.444 54.79 299.247 55.665 297.865 56.263C296.483 56.816 294.941 57.092 293.237 57.092C291.349 57.092 289.691 56.701 288.263 55.918C286.836 55.089 285.73 53.938 284.947 52.464C284.653 51.857 284.417 51.209 284.241 50.521L308.641 50.461C308.825 49.6781 308.94 48.9873 308.986 48.3886C309.079 47.7439 309.125 47.1222 309.125 46.5235C309.125 43.346 308.411 40.5138 306.983 38.027C305.602 35.4942 303.667 33.514 301.181 32.0864C298.74 30.6127 295.908 29.8759 292.684 29.8759C289.414 29.8759 286.444 30.6588 283.773 32.2245C281.102 33.7442 278.984 35.8165 277.418 38.4415C275.898 41.0204 275.138 43.9677 275.138 47.2834C275.138 50.645 275.921 53.639 277.487 56.263C279.099 58.888 281.263 60.961 283.98 62.48ZM284.249 43.7499C284.41 43.1391 284.62 42.567 284.878 42.0335C285.615 40.5599 286.651 39.4316 287.987 38.6487C289.322 37.8198 290.888 37.4053 292.684 37.4053C294.388 37.4053 295.816 37.7737 296.967 38.5106C298.164 39.2013 299.062 40.2145 299.661 41.55C299.971 42.1929 300.218 42.9106 300.4 43.703L284.249 43.7499Z" fill="white"/>
<path fill-rule="evenodd" clip-rule="evenodd" d="M42.0307 84.061C65.244 84.061 84.061 65.244 84.061 42.0307C84.061 18.8178 65.244 0 42.0307 0C18.8178 0 0 18.8178 0 42.0307C0 65.244 18.8178 84.061 42.0307 84.061ZM59.438 16.3047C59.937 16.7265 60.224 17.3467 60.224 18L60.223 26.4443L60.224 27L60.223 27.0664V55.333C60.223 60.243 56.243 64.222 51.334 64.222C46.4248 64.222 42.4453 60.243 42.4453 55.333C42.4453 50.424 46.4248 46.4443 51.334 46.4443C52.953 46.4443 54.471 46.8774 55.778 47.6338V29.623L33.5557 33.3276V59.778C33.5557 64.687 29.5762 68.666 24.667 68.666C19.7578 68.666 15.7783 64.687 15.7783 59.778C15.7783 54.869 19.7578 50.889 24.667 50.889C26.2861 50.889 27.8047 51.322 29.1113 52.078L29.1123 31.4443L29.1113 30.8887L29.1123 30.8223V22.4443C29.1123 21.3584 29.8975 20.4311 30.9697 20.2524L57.636 15.8081C58.28 15.7007 58.939 15.8823 59.438 16.3047Z" fill="white"/>
</svg>
